<svg width="24" height="20" viewBox="0 0 24 20" fill="none" xmlns="http://www.w3.org/2000/svg">
<path d="M24 2.55856C23.1075 2.95006 22.1565 3.20956 21.165 3.33556C22.185 2.72656 22.9635 1.76956 23.3295 0.616061C22.3785 1.18306 21.3285 1.58356 20.2095 1.80706C19.3065 0.845561 18.0195 0.250061 16.6155 0.250061C13.8915 0.250061 11.6985 2.46106 11.6985 5.17156C11.6985 5.56156 11.7315 5.93656 11.8125 6.29356C7.722 6.09406 4.1025 4.13356 1.671 1.14706C1.2465 1.88356 0.9975 2.72656 0.9975 3.63406C0.9975 5.33806 1.875 6.84856 3.183 7.72306C2.3925 7.70806 1.617 7.47856 0.96 7.11706C0.96 7.13206 0.96 7.15156 0.96 7.17106C0.96 9.56206 2.6655 11.5481 4.902 12.0056C4.5015 12.1151 4.065 12.1676 3.612 12.1676C3.297 12.1676 2.979 12.1496 2.6805 12.0836C3.318 14.0321 5.127 15.4646 7.278 15.5111C5.604 16.8206 3.4785 17.6096 1.1775 17.6096C0.774 17.6096 0.387 17.5916 0 17.5421C2.1795 18.9476 4.7625 19.7501 7.548 19.7501C16.602 19.7501 21.552 12.2501 21.552 5.74906C21.552 5.53156 21.5445 5.32156 21.534 5.11306C22.5105 4.42006 23.331 3.55456 24 2.55856Z" fill="#F4F4FD"/>
</svg>
