<?xml version="1.0" encoding="UTF-8"?>
<svg xmlns="http://www.w3.org/2000/svg" xmlns:xlink="http://www.w3.org/1999/xlink" width="0" height="0">
<symbol id="icon-antenna" width="64" height="64" viewBox="0 0 64 64" fill="none">
<path d="M61.5463 44.1952L44.6599 27.1851L46.534 17.9541C47.0176 18.1429 47.5318 18.2416 48.0508 18.2453H48.0636C50.4482 18.2735 52.404 16.3633 52.4323 13.9788C52.4606 11.5943 50.5503 9.6384 48.1658 9.61013C45.7812 9.582 43.8254 11.4921 43.7971 13.8767C43.7911 14.3869 43.8755 14.8941 44.0466 15.3749L34.1266 16.5856L17.9452 0.32C17.7467 0.117467 17.4757 0.00226667 17.1921 0C16.9121 0.00146667 16.644 0.112933 16.4455 0.3104L13.4204 3.3184C13.004 3.73493 13.004 4.41013 13.4204 4.82667L15.0481 6.47787C8.74201 18.0737 10.7903 32.4335 20.0871 41.8037C20.1724 41.8853 20.2713 41.9513 20.3793 41.9989C20.3121 42.3599 20.2771 42.7261 20.2748 43.0933V55.4667H7.47481C4.53081 55.4701 2.14495 57.856 2.14148 60.8V62.9333C2.14148 63.5224 2.61908 64 3.20815 64H52.2748C52.8639 64 53.3415 63.5224 53.3415 62.9333V60.8C53.338 57.856 50.9522 55.4701 48.0082 55.4667H35.2082V49.9829C37.2134 50.4035 39.2564 50.6179 41.3052 50.6229C46.2215 50.6176 51.0595 49.392 55.3852 47.056L57.0215 48.7019C57.22 48.9044 57.491 49.0196 57.7746 49.0219C58.0546 49.0204 58.3227 48.9089 58.5212 48.7115L61.5463 45.7035C61.9627 45.2869 61.9627 44.6117 61.5463 44.1952ZM46.5596 12.4661C47.395 11.6352 48.7458 11.6389 49.5766 12.4743C50.4075 13.3096 50.4038 14.6604 49.5684 15.4912C49.1686 15.8889 48.6275 16.1121 48.0635 16.112H48.0571C46.879 16.1059 45.9287 15.1459 45.9348 13.9676C45.9378 13.4036 46.1639 12.8639 46.5638 12.4661H46.5596ZM44.0487 19.4752L42.8519 25.3664L40.5009 23.0016L44.0487 19.4752ZM42.837 17.6715L38.997 21.4891L36.0263 18.5024L42.837 17.6715ZM48.0082 57.6C49.7755 57.6 51.2082 59.0327 51.2082 60.8V61.8667H4.27481V60.8C4.27481 59.0327 5.70748 57.6 7.47481 57.6H48.0082ZM33.0748 53.3333V55.4667H22.4081V53.3333H33.0748ZM22.4081 51.2V43.0933C22.4081 40.5056 24.8007 38.4 27.7415 38.4C30.6823 38.4 33.0748 40.5056 33.0748 43.0933V51.2H22.4081ZM35.2082 47.808V43.0933C35.2082 39.3291 31.8588 36.2667 27.7415 36.2667C25.0793 36.2259 22.59 37.5809 21.1793 39.8389C13.0639 31.2913 11.2364 18.5485 16.6221 8.06467L53.8258 45.4816C48.081 48.404 41.4955 49.2268 35.2082 47.808ZM57.7863 46.4405L56.2834 44.9291L17.1815 5.59147L15.6721 4.07893L17.1815 2.57493L33.0513 18.5344C33.0588 18.5344 33.0631 18.5483 33.0706 18.5536L59.2999 44.9365L57.7863 46.4405Z" fill="#2E2F42"/>
<path d="M27.7511 40.5333H27.7415C25.9742 40.5306 24.5394 41.9612 24.5367 43.7285C24.534 45.4958 25.9646 46.9306 27.7319 46.9333H27.7415C29.5088 46.936 30.9436 45.5054 30.9463 43.7381C30.9489 41.9708 29.5184 40.536 27.7511 40.5333ZM28.4978 44.4896C28.297 44.6893 28.0248 44.801 27.7415 44.8C27.1524 44.7969 26.6774 44.3169 26.6804 43.7278C26.6819 43.4458 26.795 43.176 26.9948 42.977C27.1934 42.7796 27.4615 42.6681 27.7415 42.6666C28.3306 42.6697 28.8056 43.1497 28.8026 43.7388C28.8011 44.0208 28.688 44.2906 28.4882 44.4896H28.4978Z" fill="#4D5AE5"/>
</symbol>

<symbol id="icon-astronaut" width="51" height="57" viewBox="0 0 51 57" fill="none">
<path d="M49.4295 24.3189C48.8546 23.5434 48.0109 23.0443 47.053 22.9098C46.0908 22.7733 45.1414 23.026 44.3734 23.6138L41.8699 25.5327L41.8688 25.5338L38.0734 28.368L35.3577 27.2864C40.2004 25.1136 43.585 20.2698 43.585 14.6462C43.585 7.00017 37.3396 0.779327 29.6627 0.779327C21.9858 0.779327 15.7405 7.00017 15.7405 14.6462C15.7405 17.4175 16.5692 19.9945 17.9805 22.163L12.4529 22.115C12.4497 22.115 12.4465 22.115 12.4433 22.115C12.4262 22.115 12.4124 22.1235 12.3964 22.1247C12.2908 22.1289 12.1873 22.1503 12.086 22.1865C12.0604 22.1962 12.0338 22.2015 12.0093 22.2132C11.9965 22.2185 11.9837 22.2195 11.9709 22.2259L5.50468 25.4185C5.50356 25.4185 5.50256 25.4185 5.50256 25.4195L1.71575 27.2405C1.67412 27.2586 1.6315 27.2831 1.58987 27.3109C0.0804746 28.3156 -0.433659 30.289 0.393104 31.9018C0.833611 32.7594 1.5835 33.391 2.50514 33.68C2.86039 33.7908 3.22302 33.8453 3.58353 33.8453C4.16279 33.8453 4.73667 33.7035 5.26243 33.423L8.03798 31.9467L12.566 29.6085L15.2797 29.5925L4.39629 40.4237C4.39529 40.4248 4.39417 40.4248 4.39304 40.4258L1.71563 43.0925C1.08312 43.7219 0.73536 44.557 0.73536 45.4478C0.73536 46.3374 1.08312 47.1747 1.71563 47.8052C2.36526 48.4516 3.21965 48.7758 4.07404 48.7758C4.92955 48.7758 5.78281 48.4516 6.43457 47.8052L9.06287 45.1875L12.5445 42.588L14.3462 44.3821L10.8229 47.8904C10.8219 47.8916 10.8208 47.8916 10.8196 47.8926L8.14223 50.5592C7.50972 51.1886 7.16196 52.0237 7.16196 52.9145C7.16196 53.8041 7.50972 54.6414 8.14223 55.2719C8.79186 55.9183 9.64738 56.2426 10.5018 56.2426C11.3562 56.2426 12.2117 55.9183 12.8623 55.2719L15.5407 52.6052L19.8255 48.3386C19.8267 48.3374 19.8267 48.3364 19.8277 48.3353L21.8469 46.3353L21.8394 46.3278C21.8522 46.315 21.8703 46.3106 21.8832 46.2969L32.2151 34.9805L39.1571 35.9682C39.2072 35.9757 39.2573 35.9789 39.3075 35.9789C39.4366 35.9789 39.5613 35.948 39.6819 35.9021C39.7171 35.8894 39.748 35.8722 39.7811 35.8552C39.8195 35.836 39.86 35.8254 39.8964 35.8009L46.3231 31.5342C46.3466 31.5182 46.3593 31.4925 46.3817 31.4755C46.4073 31.4553 46.4393 31.4468 46.4627 31.4243L49.0056 29.0424C50.3288 27.8026 50.5111 25.7717 49.4295 24.3189ZM4.26079 31.5403C3.91416 31.7259 3.52053 31.7632 3.14402 31.6438C2.77064 31.5275 2.46776 31.2725 2.29063 30.928C1.9685 30.3008 2.15513 29.537 2.71939 29.1243L5.34668 27.8602L5.97919 29.7088L6.24482 30.4853L4.26079 31.5403ZM11.255 27.8849L8.15848 29.4849L7.64759 27.9915L7.28071 26.9184L11.3342 24.9172L11.255 27.8849ZM41.4539 14.644C41.4539 16.4808 41.0155 18.2132 40.256 19.763L31.8932 15.9646C31.8057 14.8179 31.2106 13.8142 30.3167 13.189L33.2447 3.46837C38.0001 4.98102 41.4539 9.41733 41.4539 14.644ZM17.876 14.644C17.876 8.17456 23.1646 2.91049 29.6649 2.91049C30.1706 2.91049 30.6655 2.95311 31.1551 3.01499L28.291 12.5224C28.2527 12.5213 28.2164 12.5106 28.1769 12.5106C26.1118 12.5106 24.4317 14.1853 24.4317 16.2441C24.4317 18.3027 26.1118 19.9775 28.1769 19.9775C29.5657 19.9775 30.7657 19.2106 31.4132 18.0883L39.1381 21.5978C36.9887 24.4906 33.5486 26.3776 29.6648 26.3776C23.1646 26.3776 17.876 21.1135 17.876 14.644ZM29.7887 16.2441C29.7887 17.1262 29.0654 17.8441 28.1769 17.8441C27.2884 17.8441 26.5651 17.1262 26.5651 16.2441C26.5651 15.3619 27.2884 14.644 28.1769 14.644C29.0654 14.644 29.7887 15.3619 29.7887 16.2441ZM4.92968 46.2925C4.45717 46.7608 3.69228 46.7598 3.2209 46.2936C2.99365 46.0664 2.86889 45.7668 2.86889 45.4478C2.86889 45.1299 2.99365 44.8301 3.2209 44.6051L5.14505 42.6882L6.84746 44.3832L4.92968 46.2925ZM11.3574 53.7594C10.8849 54.2276 10.119 54.2288 9.6475 53.7605C9.42025 53.5333 9.29549 53.2336 9.29549 52.9146C9.29549 52.5967 9.42025 52.297 9.6475 52.072L11.5729 50.1541L12.3783 50.9552L13.2764 51.8491L11.3574 53.7594ZM18.3208 46.8217C18.3196 46.8227 18.3186 46.8227 18.3175 46.8238L14.7878 50.3438L13.9824 49.5427L13.0843 48.6488L16.6107 45.1384C16.6107 45.1384 16.6107 45.1384 16.6107 45.1374C16.6119 45.1363 16.6129 45.1363 16.614 45.1353C16.694 45.0553 16.7441 44.9593 16.7932 44.8644C16.8071 44.8366 16.8337 44.8131 16.8455 44.7844C16.8786 44.7023 16.8839 44.6138 16.8967 44.5272C16.9031 44.4781 16.9245 44.4324 16.9245 44.3821C16.9245 44.3106 16.8989 44.2414 16.884 44.1709C16.8712 44.1069 16.8712 44.0417 16.8466 43.98C16.8061 43.8797 16.7367 43.7912 16.6642 43.7047C16.644 43.6812 16.6365 43.6514 16.6141 43.629C16.6141 43.629 16.6141 43.629 16.613 43.629C16.6119 43.628 16.6119 43.6257 16.6109 43.6247L13.3969 40.4247C13.3628 40.3906 13.3191 40.3767 13.2807 40.3479C13.2242 40.3042 13.1698 40.2637 13.1068 40.2327C13.0461 40.2028 12.9842 40.1847 12.9202 40.1676C12.8519 40.1483 12.7858 40.1334 12.7143 40.1281C12.6492 40.1238 12.5884 40.1302 12.5234 40.1377C12.4519 40.1462 12.3848 40.1558 12.3154 40.1782C12.2482 40.1996 12.1885 40.2326 12.1267 40.2678C12.0872 40.2902 12.0424 40.2977 12.005 40.3254L8.45836 42.973L6.6567 41.1788L11.4547 36.4065L20.1759 44.9838L18.3208 46.8217ZM31.9584 32.7883C31.9275 32.7841 31.8986 32.7958 31.8677 32.7937C31.7898 32.7894 31.7152 32.7948 31.6373 32.8076C31.5766 32.8182 31.519 32.8299 31.4613 32.8502C31.3931 32.8737 31.3312 32.9057 31.2682 32.9441C31.2085 32.9803 31.1541 33.0187 31.1018 33.0667C31.0762 33.0891 31.0453 33.0998 31.0218 33.1253L21.6253 43.4167L12.9692 34.9035L18.6354 29.2671C19.0525 28.8511 19.0546 28.1759 18.6386 27.7577C18.4285 27.5476 18.1523 27.4441 17.876 27.4452V27.4442L13.4386 27.4709L13.4941 24.2559L19.7022 24.3093C22.2323 26.8971 25.7609 28.511 29.6649 28.511C30.5396 28.511 31.393 28.4204 32.2239 28.2656C32.3039 28.3296 32.3827 28.3948 32.4831 28.4353L37.3024 30.3553L37.6074 31.8721L37.9637 33.6427L31.9584 32.7883ZM40.0406 33.1446L39.4145 30.0288L42.3073 27.8687L43.0647 28.8735L44.2007 30.3818L40.0406 33.1446ZM47.5478 27.4826L45.8721 29.0528L44.0097 26.5802L45.6726 25.3056C45.9829 25.0667 46.3745 24.9696 46.7585 25.0197C47.1446 25.0741 47.486 25.2757 47.7185 25.5882C48.1516 26.1717 48.078 26.9856 47.5478 27.4826Z" fill="#2E2F42"/>
</symbol>

<symbol id="icon-clock" width="62" height="64" viewBox="0 0 62 64" fill="none">
<path d="M61.5933 30.6025C61.5899 13.6978 47.8828 -0.00341734 30.9775 6.39362e-07C14.0728 0.00341861 0.371583 13.7109 0.375001 30.6157C0.37793 43.9316 8.98877 55.7178 21.6738 59.7681C21.7949 59.8062 21.9209 59.8257 22.0474 59.8252C22.2886 59.8247 22.5249 59.7603 22.7324 59.6377C23.0024 59.478 23.2041 59.2241 23.2988 58.9248L31.0288 34.4248C33.1421 34.4141 34.8462 32.6919 34.835 30.5791C34.8242 28.4658 33.1025 26.7617 30.9893 26.7725C30.4209 26.7749 29.8599 26.9058 29.3491 27.1553L19.1372 16.9419C18.6304 16.4526 17.8232 16.4668 17.334 16.9731C16.8564 17.4678 16.8564 18.251 17.334 18.7456L27.5405 28.9639C26.7573 30.5625 27.2051 32.4922 28.6133 33.582L21.248 56.9277C6.69238 51.5659 -0.760742 35.4199 4.60108 20.8643C9.96289 6.30859 26.1089 -1.14453 40.6646 4.21729C55.2202 9.5791 62.6733 25.7256 57.3115 40.2808C54.6919 47.3921 49.3096 53.1431 42.3872 56.2275L41.5913 52.479C41.4458 51.79 40.7686 51.3496 40.0796 51.4956C39.8623 51.542 39.6606 51.6441 39.4946 51.792L31.8208 58.6431C31.2944 59.1113 31.2476 59.9175 31.7163 60.4439C31.8687 60.6148 32.064 60.7417 32.2827 60.8115L42.0801 63.9385C42.7505 64.1538 43.4688 63.7852 43.6841 63.1143C43.7524 62.9024 43.7637 62.6768 43.7178 62.459L42.9356 58.7808C54.2642 54.0049 61.6196 42.8965 61.5933 30.6025ZM30.9844 29.3272C31.6885 29.3272 32.2598 29.8984 32.2598 30.6025C32.2598 31.3071 31.6885 31.8779 30.9844 31.8779C30.2798 31.8779 29.709 31.3071 29.709 30.6025C29.709 29.8984 30.2798 29.3272 30.9844 29.3272ZM35.1851 59.0552L39.5532 55.1587L40.7588 60.8394L35.1851 59.0552Z" fill="#2E2F42"/>
</symbol>

<symbol id="icon-diagram" width="64" height="50" viewBox="0 0 64 50" fill="none">
<path d="M3.19833 49.5819H54.3715C56.1378 49.5819 57.5699 48.1499 57.5699 46.3836V42.1192C57.5699 40.3529 56.1378 38.9209 54.3715 38.9209H53.3054V12.3343L59.3611 6.59768C60.7666 7.29055 62.4678 6.86993 63.3876 5.60029C64.308 4.33116 64.1789 2.58364 63.0826 1.46339C61.9863 0.343142 60.2424 0.176042 58.953 1.06776C57.6641 1.96 57.206 3.65131 57.8681 5.07192L53.3054 9.39726V6.93761C53.3054 5.17134 51.8734 3.73928 50.1071 3.73928H7.46276C5.6965 3.73928 4.26443 5.17134 4.26443 6.93761V38.9209H3.19833C1.43206 38.9209 0 40.3529 0 42.1192V46.3836C0 48.1499 1.43206 49.5819 3.19833 49.5819ZM60.7682 2.67317C61.3569 2.67317 61.8343 3.15053 61.8343 3.73928C61.8343 4.32803 61.3569 4.80539 60.7682 4.80539C60.1794 4.80539 59.7021 4.32803 59.7021 3.73928C59.7021 3.15053 60.1794 2.67317 60.7682 2.67317ZM6.39665 6.93761C6.39665 6.34885 6.874 5.8715 7.46276 5.8715H50.1071C50.6958 5.8715 51.1732 6.34885 51.1732 6.93761V11.4149L49.041 13.441V9.06982C49.041 8.48107 48.5636 8.00371 47.9749 8.00371H9.59498C9.00622 8.00371 8.52887 8.48107 8.52887 9.06982V35.7225C8.52887 36.3113 9.00622 36.7886 9.59498 36.7886H47.9749C48.5636 36.7886 49.041 36.3113 49.041 35.7225V16.3738L51.1732 14.3535V38.9209H6.39665V6.93761ZM15.9916 20.797C14.5492 20.7929 13.2826 21.7538 12.899 23.1442C12.5153 24.5346 13.1093 26.0094 14.3498 26.7455C15.5898 27.4815 17.1697 27.2967 18.2061 26.2936L21.912 28.1531C22.3425 28.3686 22.8646 28.2676 23.1847 27.9079L31.0624 19.0453L38.8062 24.848C39.2216 25.1593 39.8016 25.126 40.1784 24.7694L46.9088 18.3941V34.6564H10.6611V10.1359H46.9088V15.4566L39.3658 22.5997L31.5569 16.7455C31.1134 16.4134 30.4892 16.4758 30.1207 16.8897L22.1348 25.8751L19.1493 24.3821C19.1712 24.2541 19.1847 24.125 19.19 23.9953C19.19 22.2291 17.7579 20.797 15.9916 20.797ZM17.0577 23.9953C17.0577 24.5841 16.5804 25.0615 15.9916 25.0615C15.4029 25.0615 14.9255 24.5841 14.9255 23.9953C14.9255 23.4066 15.4029 22.9292 15.9916 22.9292C16.5804 22.9292 17.0577 23.4066 17.0577 23.9953ZM23.4544 41.0531H34.1155V42.1192C34.1155 42.7079 33.6381 43.1853 33.0494 43.1853H24.5205C23.9317 43.1853 23.4544 42.7079 23.4544 42.1192V41.0531ZM2.13222 42.1192C2.13222 41.5304 2.60957 41.0531 3.19833 41.0531H21.3222V42.1192C21.3222 43.8855 22.7542 45.3175 24.5205 45.3175H33.0494C34.8156 45.3175 36.2477 43.8855 36.2477 42.1192V41.0531H54.3715C54.9603 41.0531 55.4376 41.5304 55.4376 42.1192V46.3836C55.4376 46.9724 54.9603 47.4497 54.3715 47.4497H3.19833C2.60957 47.4497 2.13222 46.9724 2.13222 46.3836V42.1192Z" fill="#2E2F42"/>
</symbol>

<symbol id="icon-facebook-sect" width="16" height="16" viewBox="0 0 16 16" fill="none">
<g clip-path="url(#clip0_639530_117)">
<path d="M10.6647 2.65654H12.1254V0.112545C11.8734 0.0778779 11.0067 -0.00012207 9.99736 -0.00012207C7.89136 -0.00012207 6.4487 1.32454 6.4487 3.75921V5.99988H4.12469V8.84388H6.4487V15.9999H9.29803V8.84455H11.528L11.882 6.00055H9.29736V4.04121C9.29803 3.21921 9.51936 2.65654 10.6647 2.65654Z" fill="#F4F4FD"/>
</g>
<defs>
<clipPath>
<rect width="16" height="16" fill="white"/>
</clipPath>
</defs>
</symbol>

<symbol id="icon-instagram-sect" width="16" height="16" viewBox="0 0 16 16" fill="none">
<g clip-path="url(#clip0_639530_105)">
<path d="M15.9843 4.70392C15.9468 3.85378 15.8093 3.26932 15.6124 2.76287C15.4092 2.22529 15.0967 1.74399 14.6872 1.34389C14.2871 0.937561 13.8026 0.621826 13.2713 0.421835C12.7619 0.224897 12.1805 0.0874194 11.3303 0.0499365C10.4738 0.00927917 10.2019 -0.00012207 8.02963 -0.00012207C5.85733 -0.00012207 5.58543 0.00927917 4.73212 0.0467621C3.88197 0.084245 3.29751 0.221845 2.79119 0.418661C2.25348 0.621826 1.77219 0.934387 1.37209 1.34389C0.965758 1.74399 0.650145 2.22846 0.450033 2.75982C0.253096 3.26932 0.115618 3.85061 0.0781347 4.70075C0.0374774 5.55724 0.0280762 5.82914 0.0280762 8.00144C0.0280762 10.1737 0.0374774 10.4456 0.0749603 11.299C0.112443 12.1491 0.250043 12.7336 0.446981 13.24C0.650145 13.7776 0.965758 14.2589 1.37209 14.659C1.77219 15.0653 2.25666 15.3811 2.78801 15.581C3.29751 15.778 3.8788 15.9155 4.72906 15.9529C5.58226 15.9906 5.85428 15.9998 8.02658 15.9998C10.1989 15.9998 10.4708 15.9906 11.3241 15.9529C12.1742 15.9155 12.7587 15.778 13.265 15.581C14.3403 15.1653 15.1904 14.3152 15.6062 13.24C15.803 12.7305 15.9406 12.1491 15.9781 11.299C16.0156 10.4456 16.025 10.1737 16.025 8.00144C16.025 5.82914 16.0218 5.55724 15.9843 4.70392ZM14.5435 11.2364C14.509 12.0179 14.3778 12.4398 14.2684 12.7211C13.9995 13.4181 13.4463 13.9714 12.7493 14.2402C12.468 14.3496 12.043 14.4809 11.2646 14.5152C10.4207 14.5528 10.1676 14.562 8.03281 14.562C5.89799 14.562 5.64172 14.5528 4.80085 14.5152C4.01945 14.4809 3.5975 14.3496 3.31619 14.2402C2.96932 14.112 2.65359 13.9088 2.39731 13.6432C2.13163 13.3837 1.92847 13.0712 1.80027 12.7243C1.69087 12.443 1.55962 12.0179 1.52532 11.2396C1.48771 10.3957 1.47843 10.1425 1.47843 8.00767C1.47843 5.87285 1.48771 5.61658 1.52532 4.77584C1.55962 3.99443 1.69087 3.57248 1.80027 3.29117C1.92847 2.94418 2.13163 2.62857 2.40049 2.37217C2.65981 2.10649 2.97237 1.90333 3.31937 1.77525C3.60067 1.66585 4.0258 1.5346 4.80403 1.50017C5.64794 1.46269 5.90117 1.45329 8.03586 1.45329C10.1738 1.45329 10.4269 1.46269 11.2678 1.50017C12.0492 1.5346 12.4712 1.66585 12.7525 1.77525C13.0993 1.90333 13.4151 2.10649 13.6714 2.37217C13.937 2.63162 14.1402 2.94418 14.2684 3.29117C14.3778 3.57248 14.509 3.99748 14.5435 4.77584C14.581 5.61975 14.5904 5.87285 14.5904 8.00767C14.5904 10.1425 14.581 10.3925 14.5435 11.2364Z" fill="#F4F4FD"/>
<path d="M8.02967 3.89124C5.76055 3.89124 3.91949 5.73217 3.91949 8.00141C3.91949 10.2707 5.76055 12.1116 8.02967 12.1116C10.2989 12.1116 12.1398 10.2707 12.1398 8.00141C12.1398 5.73217 10.2989 3.89124 8.02967 3.89124ZM8.02967 10.6676C6.55758 10.6676 5.3635 9.47362 5.3635 8.00141C5.3635 6.5292 6.55758 5.33524 8.02967 5.33524C9.50188 5.33524 10.6958 6.5292 10.6958 8.00141C10.6958 9.47362 9.50188 10.6676 8.02967 10.6676Z" fill="#F4F4FD"/>
<path d="M13.262 3.72871C13.262 4.2586 12.8324 4.68825 12.3024 4.68825C11.7725 4.68825 11.3428 4.2586 11.3428 3.72871C11.3428 3.19869 11.7725 2.76917 12.3024 2.76917C12.8324 2.76917 13.262 3.19869 13.262 3.72871Z" fill="#F4F4FD"/>
</g>
<defs>
<clipPath>
<rect width="16" height="16" fill="white"/>
</clipPath>
</defs>
</symbol>

<symbol id="icon-linkedin-sect" width="16" height="16" viewBox="0 0 16 16" fill="none">
<g clip-path="url(#clip0_639530_121)">
<path d="M15.996 15.9999V15.9992H16V10.1312C16 7.26053 15.382 5.04919 12.026 5.04919C10.4126 5.04919 9.32997 5.93453 8.88797 6.77386H8.8413V5.31719H5.6593V15.9992H8.97264V10.7099C8.97264 9.31719 9.23664 7.97053 10.9613 7.97053C12.6606 7.97053 12.686 9.55986 12.686 10.7992V15.9999H15.996Z" fill="#F4F4FD"/>
<path d="M0.264038 5.31787H3.58137V15.9999H0.264038V5.31787Z" fill="#F4F4FD"/>
<path d="M1.92133 -0.00012207C0.860667 -0.00012207 0 0.860545 0 1.92121C0 2.98188 0.860667 3.86055 1.92133 3.86055C2.982 3.86055 3.84267 2.98188 3.84267 1.92121C3.842 0.860545 2.98133 -0.00012207 1.92133 -0.00012207V-0.00012207Z" fill="#F4F4FD"/>
</g>
<defs>
<clipPath>
<rect width="16" height="16" fill="white"/>
</clipPath>
</defs>
</symbol>

<symbol id="icon-logo1" width="104" height="56" viewBox="0 0 104 56" fill="none">
<path fill-rule="evenodd" clip-rule="evenodd" d="M38 7L45.0078 13.6764L32 13.6687V46.0609H66V33.6758L73 40.3448V7H38ZM65.6924 32.8922L45.8226 13.962H65.6924V32.8922ZM59.5231 41.3227H37.3801V19.5373H38.9453V39.8475H59.5231V41.3227ZM41.7959 52.0611L40.9707 50.3643H40.2896L41.4858 52.6104V53.919H42.1035V52.6104L43.2998 50.3643H42.6211L41.7959 52.0611ZM44.8379 50.3643H44.9844L46.3271 53.919H45.6826L45.395 53.0865H44.0189L43.7319 53.919H43.0898L44.4277 50.3643H44.5718H44.8379ZM44.1864 52.6007H45.2271L44.7062 51.0927L44.1864 52.6007ZM48.4821 52.0117C48.4553 51.9776 48.4295 51.9445 48.4048 51.9122C48.3136 51.7917 48.2428 51.6754 48.1924 51.5631C48.1419 51.4491 48.1167 51.3319 48.1167 51.2115C48.1167 51.026 48.1549 50.8665 48.2314 50.733C48.3079 50.5995 48.4162 50.497 48.5562 50.4254C48.6961 50.3521 48.8597 50.3155 49.0469 50.3155C49.2275 50.3155 49.383 50.3521 49.5132 50.4254C49.645 50.497 49.7459 50.5922 49.8159 50.711C49.8875 50.8298 49.9233 50.96 49.9233 51.1016C49.9233 51.2139 49.903 51.3165 49.8623 51.4093C49.8216 51.502 49.7655 51.5867 49.6938 51.6632C49.6222 51.7397 49.5392 51.8121 49.4448 51.8805L49.1979 52.0602L49.9018 52.8909C49.925 52.8453 49.946 52.7973 49.9648 52.7472C50.0251 52.5909 50.0552 52.4176 50.0552 52.2271H50.563C50.563 52.3997 50.5459 52.5632 50.5117 52.7179C50.4792 52.8725 50.4263 53.0157 50.353 53.1475C50.3233 53.2022 50.2897 53.2545 50.2522 53.3044L50.7729 53.919H50.0918L49.8852 53.676C49.7734 53.7609 49.6518 53.8272 49.5205 53.8751C49.348 53.9369 49.1641 53.9679 48.9688 53.9679C48.7327 53.9679 48.5285 53.9247 48.356 53.8385C48.1834 53.7522 48.05 53.6334 47.9556 53.482C47.8628 53.3306 47.8164 53.1573 47.8164 52.962C47.8164 52.8171 47.8465 52.6902 47.9067 52.5811C47.967 52.4705 48.0492 52.3679 48.1533 52.2735C48.2495 52.1862 48.3591 52.099 48.4821 52.0117ZM48.7738 52.3689L48.7002 52.4224C48.6139 52.4924 48.5496 52.56 48.5073 52.6251C48.4666 52.6886 48.4398 52.7472 48.4268 52.8009C48.4137 52.8546 48.4072 52.9018 48.4072 52.9425C48.4072 53.0466 48.4292 53.141 48.4731 53.2257C48.5187 53.3103 48.5846 53.3778 48.6709 53.4283C48.7588 53.4771 48.8654 53.5015 48.9907 53.5015C49.1258 53.5015 49.2568 53.4714 49.3838 53.4112C49.4474 53.3802 49.5078 53.3429 49.5648 53.2992L48.7738 52.3689ZM48.9143 51.7196L49.1323 51.5728C49.2349 51.5045 49.3081 51.4377 49.3521 51.3726C49.396 51.3059 49.418 51.2229 49.418 51.1236C49.418 51.039 49.3854 50.9609 49.3203 50.8892C49.2552 50.8176 49.1632 50.7818 49.0444 50.7818C48.9614 50.7818 48.8914 50.8013 48.8345 50.8404C48.7775 50.8778 48.7344 50.9283 48.7051 50.9918C48.6774 51.0536 48.6636 51.1228 48.6636 51.1993C48.6636 51.2725 48.6823 51.3482 48.7197 51.4263C48.7572 51.5028 48.8084 51.5834 48.8735 51.668C48.8868 51.685 48.9004 51.7021 48.9143 51.7196ZM55.1333 52.7618H54.5229C54.505 52.9164 54.4676 53.0474 54.4106 53.1549C54.3553 53.2607 54.2731 53.3412 54.1641 53.3966C54.0566 53.4519 53.9159 53.4796 53.7417 53.4796C53.5985 53.4796 53.4756 53.4511 53.373 53.3941C53.2705 53.3372 53.1859 53.2566 53.1191 53.1524C53.054 53.0483 53.0052 52.9237 52.9727 52.7789C52.9417 52.6324 52.9263 52.4696 52.9263 52.2906V51.9903C52.9263 51.8015 52.9434 51.6339 52.9775 51.4874C53.0133 51.3393 53.0662 51.2148 53.1362 51.1138C53.2062 51.0129 53.2933 50.9364 53.3975 50.8844C53.5016 50.8323 53.6237 50.8062 53.7637 50.8062C53.9346 50.8062 54.0729 50.8355 54.1787 50.8941C54.2845 50.9511 54.3643 51.0341 54.418 51.1431C54.4733 51.2522 54.5091 51.3832 54.5254 51.5362H55.1357C55.1113 51.2986 55.0446 51.0878 54.9355 50.9039C54.8281 50.72 54.6768 50.5759 54.4814 50.4718C54.2861 50.3676 54.0469 50.3155 53.7637 50.3155C53.5407 50.3155 53.3397 50.3546 53.1606 50.4327C52.9832 50.5108 52.8311 50.6239 52.7041 50.7721C52.5771 50.9185 52.4795 51.0951 52.4111 51.3018C52.3444 51.5085 52.311 51.7397 52.311 51.9952V52.2906C52.311 52.5461 52.3436 52.7773 52.4087 52.984C52.4754 53.1907 52.5715 53.3673 52.6968 53.5138C52.8221 53.6586 52.9727 53.7709 53.1484 53.8507C53.3242 53.9288 53.522 53.9679 53.7417 53.9679C54.0282 53.9679 54.2715 53.9158 54.4717 53.8116C54.6719 53.7074 54.8273 53.565 54.938 53.3844C55.0487 53.2021 55.1138 52.9945 55.1333 52.7618ZM58.5244 52.2393V52.044C58.5244 51.7755 58.4886 51.5354 58.417 51.3238C58.347 51.1106 58.2469 50.9291 58.1167 50.7794C57.9865 50.628 57.8311 50.5133 57.6504 50.4351C57.4697 50.3554 57.2695 50.3155 57.0498 50.3155C56.8317 50.3155 56.6323 50.3554 56.4517 50.4351C56.2726 50.5133 56.1172 50.628 55.9854 50.7794C55.8551 50.9291 55.7542 51.1106 55.6826 51.3238C55.611 51.5354 55.5752 51.7755 55.5752 52.044V52.2393C55.5752 52.5079 55.611 52.7488 55.6826 52.962C55.7559 53.1752 55.8584 53.3567 55.9902 53.5064C56.1221 53.6562 56.2775 53.7709 56.4565 53.8507C56.6372 53.9288 56.8366 53.9679 57.0547 53.9679C57.2744 53.9679 57.4746 53.9288 57.6553 53.8507C57.8359 53.7709 57.9906 53.6562 58.1191 53.5064C58.2493 53.3567 58.3494 53.1752 58.4194 52.962C58.4894 52.7488 58.5244 52.5079 58.5244 52.2393ZM57.9116 52.0391V52.2393C57.9116 52.4379 57.8921 52.6137 57.853 52.7667C57.8156 52.9197 57.7603 53.0491 57.687 53.1549C57.6138 53.259 57.5243 53.338 57.4185 53.3917C57.3127 53.4438 57.1914 53.4698 57.0547 53.4698C56.9196 53.4698 56.7992 53.4438 56.6934 53.3917C56.5876 53.338 56.4964 53.259 56.4199 53.1549C56.3451 53.0491 56.2881 52.9197 56.249 52.7667C56.21 52.6137 56.1904 52.4379 56.1904 52.2393V52.0391C56.1904 51.8406 56.21 51.6656 56.249 51.5142C56.2881 51.3612 56.3442 51.2335 56.4175 51.1309C56.4923 51.0268 56.5827 50.9486 56.6885 50.8966C56.7943 50.8429 56.9147 50.816 57.0498 50.816C57.1849 50.816 57.3062 50.8429 57.4136 50.8966C57.521 50.9486 57.6113 51.0268 57.6846 51.1309C57.7594 51.2335 57.8156 51.3612 57.853 51.5142C57.8921 51.6656 57.9116 51.8406 57.9116 52.0391Z" fill="#8E8F99"/>
</symbol>

<symbol id="icon-logo2" width="104" height="56" viewBox="0 0 104 56" fill="none">
<path fill-rule="evenodd" clip-rule="evenodd" d="M50.1136 5.93452H49.977C49.7671 5.92181 49.5571 5.91672 49.3471 5.91163H49.3471H49.3269H48.8918C48.4946 5.91163 48.0898 5.92181 47.6876 5.94215C47.6573 5.93994 47.6269 5.93994 47.5966 5.94215C43.9522 6.14863 40.3817 7.05951 37.0805 8.62492L36.6479 8.83344V30.9746L37.6598 30.6313C38.5477 30.3261 39.4938 30.0515 40.4728 29.7972C43.1193 29.1178 45.8367 28.7567 48.568 28.7216V31.6306C48.2062 31.6332 47.8546 31.6434 47.503 31.6612H47.4195C45.3175 31.7765 43.2317 32.0967 41.1913 32.6173C38.6072 33.2643 36.1143 34.2357 33.7716 35.5086V7.11189C36.2047 5.69275 38.8253 4.62687 41.5556 3.94596C43.9527 3.32705 46.4169 3.00931 48.8918 3H49.3193C49.8303 3.01271 50.3287 3.0356 50.7967 3.0712C52.0297 3.15778 53.2528 3.35263 54.4521 3.65353V6.51685C53.2874 6.24551 52.1032 6.06695 50.9105 5.98284C50.8863 5.98079 50.8621 5.97872 50.8379 5.97666C50.5911 5.95561 50.344 5.93452 50.1136 5.93452ZM55.1528 8.86138C55.7877 8.9097 56.4455 8.93259 57.1108 8.93259C59.7125 8.92307 62.3031 8.59083 64.8239 7.94339C67.4068 7.29396 69.8986 6.32178 72.2411 5.04956V32.9402C69.8067 34.3585 67.1853 35.4243 64.4546 36.1061C62.0571 36.7227 59.5931 37.0395 57.1184 37.0496C55.2433 37.0647 53.3737 36.8443 51.553 36.3935V8.32229C51.983 8.42146 52.4257 8.51301 52.876 8.58929C53.6147 8.7139 54.3939 8.80544 55.1528 8.86138ZM69.3471 9.07753L68.3352 9.41828C67.4042 9.73106 66.4657 10.0108 65.5221 10.26C62.7749 10.966 59.9514 11.3281 57.1158 11.3382C56.4556 11.3382 55.8485 11.3204 55.2616 11.2822L54.4546 11.2288V31.3178V34.0057L55.1477 34.0667C55.7903 34.1227 56.4531 34.1506 57.1209 34.1506C59.3544 34.1412 61.5781 33.8533 63.7412 33.2937C65.5223 32.8469 67.2552 32.2243 68.9145 31.4348L69.3471 31.2263V9.07753Z" fill="#8E8F99"/>
<path d="M35.7371 45.2124C35.5917 45.0615 35.4163 44.943 35.2224 44.8646C35.0284 44.7862 34.8203 44.7496 34.6114 44.7572C34.3888 44.7542 34.1678 44.7957 33.9613 44.8793C33.7719 44.9547 33.5998 45.068 33.4553 45.2124C33.3125 45.3572 33.2013 45.5304 33.129 45.721C33.0497 45.9207 33.0101 46.1341 33.0126 46.3491V50.1431C33.0036 50.4104 33.0546 50.6764 33.1619 50.9212C33.2514 51.1156 33.3807 51.2889 33.5413 51.4298C33.693 51.5575 33.871 51.6495 34.0625 51.6994C34.2469 51.7512 34.4376 51.7777 34.6291 51.7782C34.8404 51.7803 35.0495 51.7351 35.2413 51.646C35.4309 51.563 35.6028 51.4438 35.7473 51.295C35.8881 51.1476 36.0005 50.9752 36.0786 50.7864C36.1597 50.5951 36.201 50.3892 36.2001 50.1812V49.7566H35.2084V50.0948C35.2114 50.2103 35.1916 50.3252 35.1502 50.433C35.1179 50.5137 35.0688 50.5866 35.006 50.6466C34.9446 50.6962 34.8742 50.7334 34.7986 50.7559C34.7316 50.7782 34.6617 50.7902 34.5912 50.7915C34.5026 50.8018 34.413 50.7885 34.3312 50.7527C34.2495 50.717 34.1786 50.6602 34.1257 50.5881C34.0322 50.4356 33.9864 50.2585 33.9942 50.0795V46.5423C33.988 46.3462 34.0297 46.1515 34.1156 45.9753C34.1671 45.8952 34.2399 45.8313 34.3258 45.7908C34.4117 45.7503 34.5071 45.7349 34.6013 45.7464C34.6868 45.7434 34.7717 45.7612 34.8488 45.7984C34.9259 45.8356 34.9929 45.8911 35.044 45.96C35.155 46.1057 35.213 46.2852 35.2084 46.4686V46.7966H36.19V46.4101C36.1919 46.1831 36.1507 45.9578 36.0685 45.7464C35.9953 45.5476 35.8825 45.3659 35.7371 45.2124Z" fill="#8E8F99"/>
<path d="M41.6289 45.1691C41.3127 44.9021 40.9136 44.7546 40.5007 44.7521C40.2987 44.7529 40.0984 44.7891 39.9087 44.8589C39.7161 44.9279 39.5384 45.0332 39.3851 45.1691C39.2208 45.3168 39.0897 45.498 39.0005 45.7006C38.9006 45.9323 38.8515 46.183 38.8563 46.4355V50.0744C38.8495 50.3304 38.8987 50.5847 39.0005 50.8195C39.0903 51.0151 39.2215 51.1887 39.3851 51.328C39.5367 51.4688 39.7147 51.5777 39.9087 51.6485C40.0984 51.7183 40.2987 51.7544 40.5007 51.7553C40.7027 51.7549 40.9031 51.7187 41.0926 51.6485C41.29 51.5767 41.4719 51.468 41.6289 51.328C41.7871 51.1861 41.9145 51.013 42.0033 50.8195C42.1051 50.5847 42.1544 50.3304 42.1475 50.0744V46.4355C42.1524 46.183 42.1032 45.9323 42.0033 45.7006C41.9151 45.5001 41.7878 45.3194 41.6289 45.1691ZM41.166 50.0744C41.1743 50.1714 41.1609 50.269 41.1268 50.3601C41.0926 50.4512 41.0386 50.5334 40.9687 50.6008C40.8377 50.7106 40.6725 50.7708 40.5019 50.7708C40.3313 50.7708 40.1662 50.7106 40.0352 50.6008C39.9652 50.5334 39.9112 50.4512 39.8771 50.3601C39.8429 50.269 39.8295 50.1714 39.8379 50.0744V46.4355C39.8295 46.3385 39.8429 46.2409 39.8771 46.1498C39.9112 46.0587 39.9652 45.9764 40.0352 45.9091C40.1662 45.7993 40.3313 45.7391 40.5019 45.7391C40.6725 45.7391 40.8377 45.7993 40.9687 45.9091C41.0386 45.9764 41.0926 46.0587 41.1268 46.1498C41.1609 46.2409 41.1743 46.3385 41.166 46.4355V50.0744Z" fill="#8E8F99"/>
<path d="M49.3673 51.6994V44.8107H48.4136L47.1614 48.4572H47.1437L45.8813 44.8107H44.9377V51.6994H45.9218V47.5087H45.9395L46.9033 50.4712H47.3941L48.3655 47.5087H48.3832V51.6994H49.3673Z" fill="#8E8F99"/>
<path d="M54.9581 45.2937C54.8065 45.1237 54.6153 44.9943 54.4015 44.9173C54.1712 44.8424 53.9302 44.8063 53.6881 44.8105H52.226V51.6993H53.2075V49.0089H53.7134C54.0197 49.0228 54.3244 48.958 54.5988 48.8207C54.822 48.6968 55.0081 48.515 55.1377 48.2943C55.2512 48.1111 55.3277 47.9071 55.3628 47.6942C55.4014 47.435 55.4192 47.173 55.4159 46.911C55.4255 46.5802 55.3932 46.2495 55.3198 45.9269C55.2543 45.6885 55.1299 45.4706 54.9581 45.2937ZM54.4521 47.3941C54.4479 47.5188 54.4168 47.6412 54.361 47.7527C54.3049 47.8586 54.2162 47.9434 54.1081 47.9942C53.9627 48.0593 53.8041 48.0889 53.6451 48.0807H53.1974V45.7387H53.7033C53.8557 45.7312 54.0075 45.7609 54.146 45.8251C54.2475 45.8834 54.3281 45.9724 54.3762 46.0794C54.4299 46.2004 54.4591 46.331 54.4622 46.4634C54.4622 46.6084 54.4622 46.7609 54.4622 46.9211C54.4622 47.0813 54.4723 47.2466 54.4622 47.3941H54.4521Z" fill="#8E8F99"/>
<path d="M59.6077 44.8107H58.8032L57.2854 51.6994H58.2669L58.5553 50.2194H59.8935L60.1819 51.6994H61.1635L59.6077 44.8107ZM58.702 49.2811L59.1852 46.784H59.2029L59.6836 49.2811H58.702Z" fill="#8E8F99"/>
<path d="M65.9497 48.9607H65.932L64.4496 44.8107H63.506V51.6994H64.4875V47.557H64.5078L66.0079 51.6994H66.9312V44.8107H65.9497V48.9607Z" fill="#8E8F99"/>
<path d="M71.9476 44.8107L71.1583 47.5494H71.1381L70.3488 44.8107H69.3091L70.6574 48.7878V51.6994H71.639V48.7878L72.9873 44.8107H71.9476Z" fill="#8E8F99"/>
<path d="M33 53.6445H33.4731V54.9719H33.7943V53.6445H34.2649V53.3724H33V53.6445Z" fill="#8E8F99"/>
<path d="M36.9767 53.3724L36.3569 54.9719H36.6984L36.83 54.6083H37.4675L37.6041 54.9719H37.9532L37.3182 53.3724H36.9767ZM36.9261 54.3387L37.1437 53.7462L37.3612 54.3387H36.9261Z" fill="#8E8F99"/>
<path d="M40.9079 54.3821H41.2773V54.5881C41.1694 54.6746 41.0358 54.722 40.8978 54.7229C40.8333 54.7265 40.7689 54.7145 40.7099 54.688C40.6509 54.6614 40.5991 54.6211 40.5588 54.5703C40.474 54.4485 40.4322 54.3017 40.4399 54.1533C40.4399 53.7973 40.5942 53.6193 40.9003 53.6193C40.9809 53.6112 41.0617 53.6325 41.128 53.6791C41.1944 53.7257 41.2419 53.7947 41.2621 53.8735L41.5783 53.8125C41.51 53.4997 41.2849 53.3421 40.9003 53.3421C40.6947 53.3366 40.4947 53.4103 40.3413 53.5481C40.2607 53.6276 40.1983 53.7239 40.1586 53.8302C40.1188 53.9365 40.1026 54.0502 40.1111 54.1634C40.1017 54.3823 40.1749 54.5966 40.316 54.7636C40.3943 54.8444 40.4892 54.9071 40.594 54.9475C40.6988 54.9879 40.8111 55.0049 40.9231 54.9975C41.1734 55.0045 41.4165 54.9133 41.6011 54.7432V54.1126H40.9079V54.3821Z" fill="#8E8F99"/>
<path d="M44.9226 53.3724H44.5988V54.9719H45.7194V54.6998H44.9226V53.3724Z" fill="#8E8F99"/>
<path d="M48.3175 53.3724H47.9937V54.9719H48.3175V53.3724Z" fill="#8E8F99"/>
<path d="M51.6365 54.4405L50.9813 53.3724H50.6676V54.9719H50.9686V53.9268L51.6112 54.9719H51.9325V53.3724H51.6365V54.4405Z" fill="#8E8F99"/>
<path d="M54.6368 54.2675H55.4337V53.9954H54.6368V53.6445H55.4944V53.3724H54.313V54.9719H55.5273V54.6998H54.6368V54.2675Z" fill="#8E8F99"/>
<path d="M61.9122 54.0031H61.2823V53.3724H60.9611V54.9719H61.2823V54.2726H61.9122V54.9719H62.2335V53.3724H61.9122V54.0031Z" fill="#8E8F99"/>
<path d="M64.9302 54.2675H65.7296V53.9954H64.9302V53.6445H65.7903V53.3724H64.6089V54.9719H65.8206V54.6998H64.9302V54.2675Z" fill="#8E8F99"/>
<path d="M69.0233 54.2676C69.3015 54.2244 69.4432 54.0769 69.4432 53.8226C69.4513 53.7546 69.441 53.6856 69.4134 53.623C69.3858 53.5603 69.3419 53.5063 69.2863 53.4666C69.1415 53.3938 68.9799 53.3614 68.8183 53.3725H68.1404V54.972H68.4617V54.3032H68.5249C68.5934 54.299 68.6619 54.3112 68.7247 54.3388C68.7717 54.3678 68.8108 54.4079 68.8386 54.4558L69.1877 54.9644H69.5722L69.3774 54.6516C69.2913 54.4972 69.1699 54.3656 69.0233 54.2676ZM68.6994 54.0464H68.4617V53.6446H68.7146C68.8248 53.6357 68.9357 53.6486 69.041 53.6827C69.0644 53.7034 69.0828 53.7291 69.095 53.7579C69.1072 53.7867 69.1127 53.8179 69.1113 53.8492C69.1098 53.8804 69.1014 53.911 69.0866 53.9385C69.0718 53.966 69.051 53.9899 69.0258 54.0082C68.9202 54.0406 68.8096 54.0535 68.6994 54.0464Z" fill="#8E8F99"/>
<path d="M72.1096 54.2675H72.9064V53.9954H72.1096V53.6445H72.9697V53.3724H71.7858V54.9719H73V54.6998H72.1096V54.2675Z" fill="#8E8F99"/>
</symbol>

<symbol id="icon-logo3" width="104" height="56" viewBox="0 0 104 56" fill="none">
<path d="M36.8098 49.2233C36.8259 49.2236 36.8418 49.2268 36.8565 49.2324C36.8712 49.2381 36.8844 49.2462 36.8954 49.2563L37.1162 49.4639C36.9448 49.6319 36.733 49.7662 36.4951 49.8578C36.2167 49.9577 35.9165 50.0059 35.6146 49.9993C35.3309 50.0043 35.049 49.9593 34.7865 49.8672C34.5497 49.7826 34.337 49.6555 34.1626 49.4945C33.9848 49.3275 33.8477 49.1319 33.7596 48.919C33.6632 48.6817 33.6155 48.4319 33.6189 48.1807C33.6149 47.9279 33.6664 47.6766 33.7707 47.44C33.8671 47.2258 34.0126 47.0301 34.1985 46.8645C34.387 46.702 34.6125 46.5744 34.861 46.4894C35.1329 46.3994 35.4224 46.3545 35.714 46.3573C35.9848 46.3517 36.2542 46.3926 36.5062 46.4776C36.7248 46.5587 36.9255 46.6712 37.0997 46.8102L36.9147 47.0319C36.9019 47.0475 36.8861 47.0611 36.8678 47.072C36.846 47.0848 36.8196 47.0907 36.7933 47.0886C36.7646 47.0869 36.737 47.0787 36.7132 47.065L36.6138 47.006L36.4758 46.9305C36.4162 46.9025 36.3544 46.8781 36.2909 46.8574C36.209 46.8324 36.125 46.8126 36.0397 46.7984C35.9314 46.7814 35.8213 46.7735 35.7112 46.7748C35.5012 46.7726 35.2929 46.8063 35.0984 46.8739C34.917 46.9365 34.7533 47.0314 34.6181 47.1522C34.4805 47.2807 34.3744 47.4315 34.3062 47.5957C34.2284 47.7835 34.1901 47.9815 34.193 48.1807C34.1897 48.3829 34.228 48.5841 34.3062 48.7751C34.3735 48.9378 34.4776 49.0877 34.6126 49.2162C34.739 49.336 34.8957 49.4295 35.0708 49.4898C35.251 49.5536 35.4444 49.5857 35.6394 49.5842C35.7521 49.5856 35.8647 49.5793 35.9762 49.5653C36.1582 49.5463 36.3328 49.4923 36.4869 49.4072C36.5641 49.3637 36.6371 49.3148 36.7049 49.261C36.7333 49.2379 36.7706 49.2244 36.8098 49.2233Z" fill="#8E8F99"/>
<path d="M43.1861 48.1803C43.1896 48.4305 43.139 48.6792 43.0371 48.9138C42.9471 49.1266 42.8054 49.3207 42.6213 49.4834C42.4371 49.646 42.2148 49.7734 41.9688 49.8573C41.4284 50.0334 40.831 50.0334 40.2906 49.8573C40.0462 49.7721 39.8253 49.6444 39.6419 49.4822C39.4579 49.3167 39.3151 49.1209 39.2223 48.9067C39.0235 48.4317 39.0235 47.9124 39.2223 47.4373C39.3165 47.2231 39.459 47.0267 39.6419 46.8595C39.8268 46.7024 40.0476 46.5796 40.2906 46.4986C40.8303 46.3193 41.4291 46.3193 41.9688 46.4986C42.214 46.5837 42.4359 46.7114 42.6203 46.8736C42.802 47.0376 42.9437 47.2308 43.0371 47.442C43.1393 47.6782 43.1899 47.9285 43.1861 48.1803ZM42.6065 48.1803C42.6108 47.9801 42.5753 47.7807 42.5016 47.5906C42.4397 47.4278 42.3392 47.2777 42.2062 47.1496C42.0768 47.0284 41.9174 46.9333 41.7397 46.8713C41.347 46.7423 40.9123 46.7423 40.5197 46.8713C40.3419 46.9333 40.1826 47.0284 40.0532 47.1496C39.9184 47.2769 39.8168 47.4272 39.7551 47.5906C39.6146 47.9746 39.6146 48.386 39.7551 48.7699C39.8174 48.9331 39.9189 49.0833 40.0532 49.211C40.1828 49.3315 40.3421 49.4257 40.5197 49.487C40.913 49.6126 41.3463 49.6126 41.7397 49.487C41.9173 49.4257 42.0766 49.3315 42.2062 49.211C42.3386 49.0826 42.4391 48.9325 42.5016 48.7699C42.5757 48.5799 42.6111 48.3805 42.6065 48.1803Z" fill="#8E8F99"/>
<path d="M47.5365 48.7987L47.5944 48.9308C47.6165 48.8836 47.6358 48.8412 47.6579 48.7987C47.679 48.7544 47.7029 48.7111 47.7297 48.669L49.1402 46.4781C49.1678 46.4404 49.1927 46.4168 49.2203 46.4097C49.2578 46.4 49.297 46.396 49.3362 46.3979H49.753V49.9614H49.2589V47.3413C49.2589 47.3083 49.2589 47.2705 49.2589 47.2304C49.2562 47.1896 49.2562 47.1486 49.2589 47.1078L47.8401 49.3293C47.8221 49.3626 47.7933 49.3908 47.757 49.4104C47.7208 49.4301 47.6787 49.4404 47.6358 49.4402H47.5558C47.5128 49.4407 47.4706 49.4305 47.4343 49.4108C47.398 49.3911 47.3692 49.3628 47.3515 49.3293L45.8913 47.0937C45.8913 47.1361 45.8913 47.1786 45.8913 47.221C45.8913 47.2635 45.8913 47.3012 45.8913 47.3342V49.9543H45.4138V46.3979H45.8306C45.8697 46.396 45.909 46.4 45.9465 46.4097C45.9807 46.4242 46.008 46.4484 46.0238 46.4781L47.4647 48.6714C47.493 48.7119 47.517 48.7545 47.5365 48.7987Z" fill="#8E8F99"/>
<path d="M52.8447 48.6217V49.9564H52.2926V46.3978H53.5237C53.7561 46.394 53.9878 46.4202 54.211 46.4756C54.3897 46.5189 54.5554 46.5945 54.6969 46.6973C54.8195 46.7937 54.914 46.9132 54.9729 47.0463C55.0381 47.1915 55.0699 47.346 55.0667 47.5015C55.0692 47.6576 55.0344 47.8124 54.9646 47.9566C54.8983 48.0932 54.7963 48.215 54.6665 48.3127C54.5249 48.4198 54.3584 48.5002 54.1779 48.5486C53.963 48.6072 53.7382 48.6351 53.5127 48.6311L52.8447 48.6217ZM52.8447 48.2396H53.5127C53.6578 48.2412 53.8022 48.2229 53.9405 48.1854C54.0546 48.1526 54.1598 48.1004 54.2497 48.0321C54.3326 47.9668 54.3968 47.8862 54.4374 47.7963C54.4826 47.7012 54.5051 47.5994 54.5036 47.4968C54.5101 47.3978 54.4912 47.2989 54.4483 47.2069C54.4054 47.1148 54.3395 47.0319 54.2552 46.9638C54.0443 46.8231 53.7794 46.755 53.5127 46.7728H52.8447V48.2396Z" fill="#8E8F99"/>
<path d="M60.2645 49.9613H59.8283C59.7846 49.9627 59.7416 49.951 59.7069 49.9282C59.6756 49.906 59.651 49.8777 59.6351 49.8457L59.2597 48.9848H57.3744L56.9852 49.8457C56.9709 49.8772 56.9471 49.9048 56.9162 49.9259C56.8811 49.95 56.837 49.9626 56.792 49.9613H56.3558L58.012 46.3975H58.5862L60.2645 49.9613ZM57.5317 48.6381H59.0886L58.4316 47.1876C58.3814 47.0785 58.3399 46.9666 58.3074 46.8527L58.2439 47.039C58.2246 47.0956 58.2025 47.1475 58.1832 47.1899L57.5317 48.6381Z" fill="#8E8F99"/>
<path d="M62.6495 46.414C62.6825 46.4295 62.7109 46.4513 62.7323 46.4777L65.1476 49.1641C65.1476 49.1216 65.1476 49.0792 65.1476 49.0391C65.1476 48.999 65.1476 48.9589 65.1476 48.9212V46.3975H65.6417V49.9613H65.3657C65.3265 49.9623 65.2876 49.955 65.2525 49.9401C65.2184 49.9231 65.1884 49.9006 65.1642 49.874L62.7517 47.19C62.7543 47.2309 62.7543 47.2718 62.7517 47.3126C62.7517 47.3527 62.7517 47.3881 62.7517 47.4211V49.9613H62.2576V46.3975H62.5502C62.5843 46.3967 62.6182 46.4024 62.6495 46.414Z" fill="#8E8F99"/>
<path d="M69.7104 48.5438V49.9589H69.1583V48.5438L67.6318 46.3975H68.1259C68.1685 46.3954 68.2106 46.4062 68.2446 46.4282C68.2747 46.4511 68.2999 46.4782 68.3192 46.5084L69.2743 47.8928C69.3129 47.9518 69.346 48.006 69.3736 48.0579C69.4012 48.1098 69.4233 48.1593 69.4426 48.2089L69.5144 48.0556C69.5412 47.9995 69.5726 47.9451 69.6083 47.8928L70.5495 46.4989C70.5693 46.4711 70.5935 46.4457 70.6213 46.4235C70.6541 46.399 70.6966 46.3864 70.74 46.3881H71.2396L69.7104 48.5438Z" fill="#8E8F99"/>
<path d="M47.2632 40.417C47.5033 40.4429 47.7462 40.4642 47.9919 40.483C51.7165 39.0595 54.8673 36.7295 57.0506 33.7844C59.2338 30.8393 60.3527 27.4097 60.2672 23.9243L56.1626 20.4172C56.9972 24.1281 56.6068 27.9642 55.0351 31.4963C53.4634 35.0284 50.7724 38.1171 47.2632 40.417Z" fill="#8E8F99"/>
<path d="M45.7975 40.2539L45.9079 40.2728C49.6578 37.9811 52.5168 34.7809 54.1151 31.0861C55.7135 27.3912 55.9776 23.3717 54.8735 19.5472L49.0271 14.5521C51.3918 18.658 52.3436 23.253 51.7719 27.8029C51.2002 32.3528 49.1284 36.6705 45.7975 40.2539Z" fill="#8E8F99"/>
<path d="M65.6251 28.0424C64.6318 31.872 62.2195 35.3258 58.7463 37.8911C57.7319 38.6444 56.6378 39.3155 55.478 39.8957C58.3062 39.1855 60.9057 37.9298 63.0761 36.2255C65.2465 34.5213 66.9298 32.4139 67.9962 30.0659L65.6251 28.0424Z" fill="#8E8F99"/>
<path d="M64.6948 27.4784L61.3189 24.594C61.2544 27.8825 60.1602 31.0963 58.15 33.9012C56.1399 36.7062 53.2871 39 49.8883 40.5442H49.9049C50.6623 40.5439 51.419 40.5053 52.1711 40.4286C55.3475 39.3209 58.1535 37.5586 60.3388 35.2989C62.524 33.0392 64.0206 30.3525 64.6948 27.4784Z" fill="#8E8F99"/>
<path d="M46.2861 12.4457L42.2587 9C38.6584 10.1887 35.562 12.2784 33.3747 14.9955C31.1875 17.7127 30.0112 20.9308 30 24.2285V24.2285C30.0135 27.8725 31.449 31.4085 34.0793 34.2769C36.7096 37.1454 40.3845 39.1824 44.5222 40.0656C48.216 36.2205 50.3786 31.4693 50.6958 26.5023C51.013 21.5353 49.4683 16.6113 46.2861 12.4457Z" fill="#8E8F99"/>
<path d="M74 26.9478C73.9854 22.6245 71.9689 18.4818 68.3908 15.4247C64.8127 12.3676 59.964 10.6447 54.9039 10.6322C52.5657 10.6301 50.2473 10.9988 48.0665 11.7194L72.7247 32.7873C73.569 30.925 74.0015 28.945 74 26.9478Z" fill="#8E8F99"/>
</symbol>

<symbol id="icon-logo4" width="104" height="56" viewBox="0 0 104 56" fill="none">
<path d="M24.0782 21.5179H24.0753C21.6897 21.5179 19.7557 23.2616 19.7557 25.4124V25.415C19.7557 27.5658 21.6897 29.3094 24.0753 29.3094H24.0782C26.4638 29.3094 28.3978 27.5658 28.3978 25.415V25.4124C28.3978 23.2616 26.4638 21.5179 24.0782 21.5179Z" fill="#8E8F99"/>
<path d="M55.9614 20.273C55.9547 17.2855 54.6356 14.4221 52.2929 12.3094C49.9502 10.1967 46.7746 9.00678 43.4611 9V9C40.1466 9.00543 36.9696 10.1948 34.6257 12.3076C32.2817 14.4205 30.9619 17.2846 30.9551 20.273V36.7472C30.9551 36.7472 55.9586 34.2364 55.9614 20.2755V20.273Z" fill="#8E8F99"/>
<path d="M11 42.1543C11.006 44.233 11.9243 46.2251 13.5543 47.6952C15.1843 49.1653 17.3935 49.9939 19.699 50C22.004 49.9939 24.2127 49.1657 25.8426 47.6961C27.4725 46.2265 28.3912 44.2351 28.398 42.1569V30.6938C28.398 30.6938 11 32.4422 11 42.1543ZM19.699 44.2082C19.2484 44.2082 18.808 44.0877 18.4334 43.862C18.0588 43.6364 17.7668 43.3156 17.5944 42.9403C17.422 42.565 17.3769 42.152 17.4648 41.7536C17.5527 41.3552 17.7696 40.9893 18.0882 40.702C18.4068 40.4148 18.8127 40.2192 19.2546 40.1399C19.6965 40.0607 20.1545 40.1014 20.5707 40.2568C20.987 40.4123 21.3427 40.6755 21.593 41.0133C21.8433 41.351 21.9769 41.7481 21.9769 42.1543C21.9781 42.4247 21.92 42.6926 21.806 42.9427C21.692 43.1927 21.5244 43.4201 21.3128 43.6116C21.1011 43.8031 20.8496 43.9551 20.5727 44.0588C20.2958 44.1625 19.9988 44.2159 19.699 44.2159V44.2082Z" fill="#8E8F99"/>
<path d="M35.6089 40.515V44.7806H34.73V40.515H35.6089ZM37.3081 42.3373V43.0228H35.3687V42.3373H37.3081ZM37.5132 40.515V41.2035H35.3687V40.515H37.5132ZM41.5269 42.5482V42.7504C41.5269 43.0746 41.4829 43.3656 41.395 43.6234C41.3071 43.8812 41.1831 44.101 41.0229 44.2826C40.8628 44.4623 40.6714 44.6 40.4487 44.6957C40.228 44.7914 39.9829 44.8392 39.7134 44.8392C39.4458 44.8392 39.2007 44.7914 38.978 44.6957C38.7573 44.6 38.5659 44.4623 38.4038 44.2826C38.2417 44.101 38.1157 43.8812 38.0259 43.6234C37.938 43.3656 37.894 43.0746 37.894 42.7504V42.5482C37.894 42.222 37.938 41.931 38.0259 41.6752C38.1138 41.4174 38.2378 41.1976 38.3979 41.016C38.5601 40.8344 38.7515 40.6957 38.9722 40.6C39.1948 40.5043 39.4399 40.4564 39.7075 40.4564C39.9771 40.4564 40.2222 40.5043 40.4429 40.6C40.6655 40.6957 40.8569 40.8344 41.0171 41.016C41.1792 41.1976 41.3042 41.4174 41.3921 41.6752C41.4819 41.931 41.5269 42.222 41.5269 42.5482ZM40.6392 42.7504V42.5424C40.6392 42.3158 40.6187 42.1166 40.5776 41.9447C40.5366 41.7728 40.4761 41.6283 40.396 41.5111C40.3159 41.3939 40.2183 41.306 40.103 41.2474C39.9878 41.1869 39.856 41.1566 39.7075 41.1566C39.5591 41.1566 39.4272 41.1869 39.312 41.2474C39.1987 41.306 39.1021 41.3939 39.022 41.5111C38.9438 41.6283 38.8843 41.7728 38.8433 41.9447C38.8022 42.1166 38.7817 42.3158 38.7817 42.5424V42.7504C38.7817 42.975 38.8022 43.1742 38.8433 43.348C38.8843 43.5199 38.9448 43.6654 39.0249 43.7845C39.105 43.9017 39.2026 43.9906 39.3179 44.0511C39.4331 44.1117 39.5649 44.142 39.7134 44.142C39.8618 44.142 39.9937 44.1117 40.1089 44.0511C40.2241 43.9906 40.3208 43.9017 40.3989 43.7845C40.4771 43.6654 40.5366 43.5199 40.5776 43.348C40.6187 43.1742 40.6392 42.975 40.6392 42.7504ZM44.3804 43.6644C44.3804 43.5883 44.3687 43.5199 44.3452 43.4594C44.3237 43.3969 44.2827 43.3402 44.2222 43.2894C44.1616 43.2367 44.0767 43.1849 43.9673 43.1342C43.8579 43.0834 43.7163 43.0306 43.5425 42.976C43.3491 42.9135 43.1655 42.8431 42.9917 42.765C42.8198 42.6869 42.6675 42.5961 42.5347 42.4926C42.4038 42.3871 42.3003 42.265 42.2241 42.1263C42.1499 41.9877 42.1128 41.8265 42.1128 41.6429C42.1128 41.4652 42.1519 41.3041 42.23 41.1595C42.3081 41.0131 42.4175 40.8881 42.5581 40.7845C42.6987 40.6791 42.8647 40.598 43.0562 40.5414C43.2495 40.4847 43.4614 40.4564 43.6919 40.4564C44.0063 40.4564 44.2808 40.5131 44.5151 40.6263C44.7495 40.7396 44.9312 40.8949 45.0601 41.0922C45.1909 41.2894 45.2563 41.515 45.2563 41.7689H44.3833C44.3833 41.6439 44.3569 41.5345 44.3042 41.4408C44.2534 41.3451 44.1753 41.2699 44.0698 41.2152C43.9663 41.1605 43.8354 41.1332 43.6772 41.1332C43.5249 41.1332 43.3979 41.1566 43.2964 41.2035C43.1948 41.2484 43.1187 41.3099 43.0679 41.3881C43.0171 41.4642 42.9917 41.5502 42.9917 41.6459C42.9917 41.7181 43.0093 41.7836 43.0444 41.8422C43.0815 41.9008 43.1362 41.9554 43.2085 42.0062C43.2808 42.057 43.3696 42.1049 43.4751 42.1498C43.5806 42.1947 43.7026 42.2386 43.8413 42.2816C44.0737 42.3519 44.2778 42.431 44.4536 42.5189C44.6313 42.6068 44.7798 42.7054 44.8989 42.8148C45.0181 42.9242 45.1079 43.0482 45.1685 43.1869C45.229 43.3256 45.2593 43.4828 45.2593 43.6586C45.2593 43.8441 45.2231 44.0101 45.1509 44.1566C45.0786 44.3031 44.9741 44.4271 44.8374 44.5287C44.7007 44.6302 44.5376 44.7074 44.3481 44.7601C44.1587 44.8129 43.9468 44.8392 43.7124 44.8392C43.5015 44.8392 43.2935 44.8119 43.0884 44.7572C42.8833 44.7006 42.6968 44.6156 42.5288 44.5023C42.3628 44.389 42.23 44.2445 42.1304 44.0687C42.0308 43.8929 41.981 43.6849 41.981 43.4447H42.8628C42.8628 43.5775 42.8833 43.6898 42.9243 43.7816C42.9653 43.8734 43.0229 43.9476 43.0972 44.0043C43.1733 44.0609 43.2632 44.1019 43.3667 44.1273C43.4722 44.1527 43.5874 44.1654 43.7124 44.1654C43.8647 44.1654 43.9897 44.1439 44.0874 44.101C44.187 44.058 44.2603 43.9984 44.3071 43.9222C44.356 43.8461 44.3804 43.7601 44.3804 43.6644ZM47.7642 40.515V44.7806H46.8882V40.515H47.7642ZM49.0767 40.515V41.2035H45.5962V40.515H49.0767ZM52.4399 44.0951V44.7806H50.1694V44.0951H52.4399ZM50.4565 40.515V44.7806H49.5776V40.515H50.4565ZM52.144 42.2523V42.9203H50.1694V42.2523H52.144ZM52.437 40.515V41.2035H50.1694V40.515H52.437ZM52.9526 40.515H54.5435C54.8696 40.515 55.1499 40.5638 55.3843 40.6615C55.6206 40.7592 55.8022 40.9037 55.9292 41.0951C56.0562 41.2865 56.1196 41.5219 56.1196 41.8011C56.1196 42.0297 56.0806 42.226 56.0024 42.39C55.9263 42.5521 55.8179 42.6879 55.6772 42.7972C55.5386 42.9047 55.3755 42.9906 55.188 43.0551L54.9097 43.2015H53.5269L53.521 42.516H54.5493C54.7036 42.516 54.8315 42.4886 54.9331 42.434C55.0347 42.3793 55.1108 42.3031 55.1616 42.2054C55.2144 42.1078 55.2407 41.9945 55.2407 41.8656C55.2407 41.7289 55.2153 41.6107 55.1646 41.5111C55.1138 41.4115 55.0366 41.3353 54.9331 41.2826C54.8296 41.2299 54.6997 41.2035 54.5435 41.2035H53.8315V44.7806H52.9526V40.515ZM55.3374 44.7806L54.3647 42.8793L55.2935 42.8734L56.2778 44.7396V44.7806H55.3374ZM59.9517 43.2601H58.8647V42.5746H59.9517C60.1196 42.5746 60.2563 42.5472 60.3618 42.4926C60.4673 42.4359 60.5444 42.3578 60.5933 42.2582C60.6421 42.1586 60.6665 42.0463 60.6665 41.9213C60.6665 41.7943 60.6421 41.6761 60.5933 41.5668C60.5444 41.4574 60.4673 41.3695 60.3618 41.3031C60.2563 41.2367 60.1196 41.2035 59.9517 41.2035H59.1694V44.7806H58.2905V40.515H59.9517C60.2856 40.515 60.5718 40.5756 60.8101 40.6967C61.0503 40.8158 61.2339 40.9808 61.3608 41.1918C61.4878 41.4027 61.5513 41.6439 61.5513 41.9154C61.5513 42.1908 61.4878 42.4291 61.3608 42.6302C61.2339 42.8314 61.0503 42.9867 60.8101 43.0961C60.5718 43.2054 60.2856 43.2601 59.9517 43.2601ZM65.02 44.0951V44.7806H62.7495V44.0951H65.02ZM63.0366 40.515V44.7806H62.1577V40.515H63.0366ZM64.7241 42.2523V42.9203H62.7495V42.2523H64.7241ZM65.0171 40.515V41.2035H62.7495V40.515H65.0171ZM67.4985 40.515V44.7806H66.6226V40.515H67.4985ZM68.811 40.515V41.2035H65.3306V40.515H68.811ZM72.1743 44.0951V44.7806H69.9038V44.0951H72.1743ZM70.1909 40.515V44.7806H69.312V40.515H70.1909ZM71.8784 42.2523V42.9203H69.9038V42.2523H71.8784ZM72.1714 40.515V41.2035H69.9038V40.515H72.1714ZM72.687 40.515H74.2778C74.604 40.515 74.8843 40.5638 75.1187 40.6615C75.355 40.7592 75.5366 40.9037 75.6636 41.0951C75.7905 41.2865 75.854 41.5219 75.854 41.8011C75.854 42.0297 75.8149 42.226 75.7368 42.39C75.6606 42.5521 75.5522 42.6879 75.4116 42.7972C75.2729 42.9047 75.1099 42.9906 74.9224 43.0551L74.644 43.2015H73.2612L73.2554 42.516H74.2837C74.438 42.516 74.5659 42.4886 74.6675 42.434C74.769 42.3793 74.8452 42.3031 74.896 42.2054C74.9487 42.1078 74.9751 41.9945 74.9751 41.8656C74.9751 41.7289 74.9497 41.6107 74.8989 41.5111C74.8481 41.4115 74.771 41.3353 74.6675 41.2826C74.564 41.2299 74.4341 41.2035 74.2778 41.2035H73.5659V44.7806H72.687V40.515ZM75.0718 44.7806L74.0991 42.8793L75.0278 42.8734L76.0122 44.7396V44.7806H75.0718ZM78.7515 43.6644C78.7515 43.5883 78.7397 43.5199 78.7163 43.4594C78.6948 43.3969 78.6538 43.3402 78.5933 43.2894C78.5327 43.2367 78.4478 43.1849 78.3384 43.1342C78.229 43.0834 78.0874 43.0306 77.9136 42.976C77.7202 42.9135 77.5366 42.8431 77.3628 42.765C77.1909 42.6869 77.0386 42.5961 76.9058 42.4926C76.7749 42.3871 76.6714 42.265 76.5952 42.1263C76.521 41.9877 76.4839 41.8265 76.4839 41.6429C76.4839 41.4652 76.5229 41.3041 76.6011 41.1595C76.6792 41.0131 76.7886 40.8881 76.9292 40.7845C77.0698 40.6791 77.2358 40.598 77.4272 40.5414C77.6206 40.4847 77.8325 40.4564 78.063 40.4564C78.3774 40.4564 78.6519 40.5131 78.8862 40.6263C79.1206 40.7396 79.3022 40.8949 79.4312 41.0922C79.562 41.2894 79.6274 41.515 79.6274 41.7689H78.7544C78.7544 41.6439 78.728 41.5345 78.6753 41.4408C78.6245 41.3451 78.5464 41.2699 78.4409 41.2152C78.3374 41.1605 78.2065 41.1332 78.0483 41.1332C77.896 41.1332 77.769 41.1566 77.6675 41.2035C77.5659 41.2484 77.4897 41.3099 77.439 41.3881C77.3882 41.4642 77.3628 41.5502 77.3628 41.6459C77.3628 41.7181 77.3804 41.7836 77.4155 41.8422C77.4526 41.9008 77.5073 41.9554 77.5796 42.0062C77.6519 42.057 77.7407 42.1049 77.8462 42.1498C77.9517 42.1947 78.0737 42.2386 78.2124 42.2816C78.4448 42.3519 78.6489 42.431 78.8247 42.5189C79.0024 42.6068 79.1509 42.7054 79.27 42.8148C79.3892 42.9242 79.479 43.0482 79.5396 43.1869C79.6001 43.3256 79.6304 43.4828 79.6304 43.6586C79.6304 43.8441 79.5942 44.0101 79.522 44.1566C79.4497 44.3031 79.3452 44.4271 79.2085 44.5287C79.0718 44.6302 78.9087 44.7074 78.7192 44.7601C78.5298 44.8129 78.3179 44.8392 78.0835 44.8392C77.8726 44.8392 77.6646 44.8119 77.4595 44.7572C77.2544 44.7006 77.0679 44.6156 76.8999 44.5023C76.7339 44.389 76.6011 44.2445 76.5015 44.0687C76.4019 43.8929 76.3521 43.6849 76.3521 43.4447H77.2339C77.2339 43.5775 77.2544 43.6898 77.2954 43.7816C77.3364 43.8734 77.394 43.9476 77.4683 44.0043C77.5444 44.0609 77.6343 44.1019 77.7378 44.1273C77.8433 44.1527 77.9585 44.1654 78.0835 44.1654C78.2358 44.1654 78.3608 44.1439 78.4585 44.101C78.5581 44.058 78.6313 43.9984 78.6782 43.9222C78.7271 43.8461 78.7515 43.7601 78.7515 43.6644Z" fill="#8E8F99"/>
</symbol>

<symbol id="icon-logo5" width="104" height="56" viewBox="48 20 125 56" fill="none">

<path d="M58.7919 60.373C59.0374 60.6465 59.1681 60.9891 59.1613 61.3407C59.1738 61.57 59.1288 61.7989 59.0298 62.0105C58.9307 62.2221 58.78 62.4109 58.5889 62.563C58.112 62.8872 57.5213 63.0457 56.925 63.0093H54V56.8769H56.8651C57.4307 56.8431 57.9918 56.9871 58.4525 57.2844C58.6375 57.4238 58.784 57.6 58.8805 57.7991C58.9769 57.9982 59.0206 58.2148 59.0082 58.4317C59.025 58.77 58.907 59.1026 58.6754 59.3694C58.4531 59.6131 58.1459 59.782 57.8036 59.8488C58.1916 59.9125 58.5419 60.0983 58.7919 60.373ZM55.361 59.4473H56.5856C56.8639 59.4659 57.1404 59.3935 57.3643 59.2436C57.4562 59.1686 57.5278 59.0755 57.5734 58.9716C57.619 58.8677 57.6374 58.7558 57.6272 58.6445C57.6358 58.5335 57.617 58.4222 57.5722 58.3186C57.5273 58.215 57.4574 58.1217 57.3676 58.0453C57.137 57.8911 56.852 57.8177 56.5657 57.8386H55.361V59.4473ZM57.4841 61.799C57.5824 61.7222 57.6596 61.6261 57.7099 61.518C57.7601 61.4099 57.7819 61.2928 57.7736 61.1759C57.7811 61.0576 57.7583 60.9394 57.7069 60.8303C57.6556 60.7212 57.5771 60.6242 57.4774 60.5468C57.2379 60.3869 56.9432 60.3084 56.6455 60.3251H55.361V62.0117H56.6622C56.955 62.0269 57.2449 61.9519 57.4841 61.799Z" fill="#8E8F99"/>
<path d="M64.6487 63.0093L63.0547 60.6127H62.4557V63.0093H61.0847V56.8769H63.6803C64.3346 56.8358 64.9814 57.0224 65.4873 57.3982C65.8501 57.731 66.0689 58.1696 66.1043 58.6348C66.1397 59.1001 65.9893 59.5614 65.6803 59.9357C65.36 60.2659 64.9226 60.4861 64.4424 60.5588L66.1395 63.0093H64.6487ZM62.4557 59.7769H63.5772C64.3558 59.7769 64.7452 59.4673 64.7452 58.8482C64.7531 58.7217 64.7318 58.5952 64.6825 58.4766C64.6333 58.358 64.5571 58.2499 64.459 58.1591C64.2129 57.9749 63.896 57.8855 63.5772 57.9105H62.4424L62.4557 59.7769Z" fill="#8E8F99"/>
<path d="M72.1426 61.7752H69.4106L68.928 63.0094H67.4905L69.9996 56.9459H71.5536L74.0527 63.0094H72.6151L72.1426 61.7752ZM71.7766 60.8465L70.7782 58.2581L69.7799 60.8465H71.7766Z" fill="#8E8F99"/>
<path d="M81.5234 63.0094H80.1624L77.1109 58.8392V63.0094H75.7532V56.877H77.1109L80.1624 61.0711V56.877H81.5234V63.0094Z" fill="#8E8F99"/>
<path d="M89.2903 61.5415C89.0089 62.0045 88.5801 62.3811 88.059 62.6229C87.4666 62.8923 86.8091 63.0251 86.1456 63.0094H83.723V56.877H86.1456C86.8079 56.8614 87.4646 56.991 88.059 57.2545C88.58 57.4908 89.0092 57.8637 89.2903 58.324C89.5704 58.8227 89.7164 59.3738 89.7164 59.9327C89.7164 60.4916 89.5704 61.0427 89.2903 61.5415ZM87.7329 61.3947C88.1213 60.9873 88.3349 60.4681 88.3349 59.9312C88.3349 59.3943 88.1213 58.8752 87.7329 58.4678C87.2634 58.0988 86.6511 57.9114 86.0291 57.9465H85.0841V61.9159H86.0291C86.6511 61.951 87.2634 61.7637 87.7329 61.3947Z" fill="#8E8F99"/>
<path d="M72.9945 22.7667C72.9945 22.7667 90.5614 28.7374 90.1887 37.3773V51.9908C90.1887 51.9908 72.6351 46.0172 73.0012 37.3773L72.9945 22.7667Z" fill="#8E8F99"/>
<path d="M105.839 48.5694C109.157 46.5139 112.994 45.2408 117 44.8666V40.292C112.384 41.8935 108.469 44.7975 105.839 48.5694Z" fill="#8E8F99"/>
<path d="M103.846 49.9478C106.561 45.0253 111.269 41.2268 117 39.3336V26.1521C117 26.1521 91.9823 34.6572 92.5114 46.9609V67.7668C92.5114 67.7668 93.6262 67.3863 95.3799 66.6733C95.3799 66.0083 95.3799 65.3372 95.4598 64.6631C95.9776 58.9511 98.9939 53.6581 103.846 49.9478Z" fill="#8E8F99"/>
<path d="M101.466 57.6769C101.598 56.234 101.891 54.8067 102.342 53.4169C99.3205 56.6211 97.491 60.5971 97.1104 64.7859C97.0738 65.1814 97.0538 65.5768 97.0438 65.9843C98.4648 65.3701 100.119 64.6032 101.856 63.7015C101.412 61.7197 101.281 59.6916 101.466 57.6769Z" fill="#8E8F99"/>
<path d="M102.461 57.7519C102.295 59.5746 102.399 61.4092 102.771 63.2072C109.606 59.5254 117.286 53.8363 116.99 46.961V46.3618C112.107 46.8537 107.538 48.7756 103.985 51.8321C103.154 53.7263 102.64 55.7214 102.461 57.7519Z" fill="#8E8F99"/>
</symbol>


<symbol id="icon-menu" width="168" height="88" viewBox="0 0 168 88" fill="none">
<g clip-path="url(#clip0_297053_2156)">
<path d="M1.34766 20.0431H30.8861M1.34766 10.7354H30.8861M1.34766 1.42773H30.8861" stroke="#2E2F42" stroke-width="3" stroke-linecap="round" stroke-linejoin="round"/>
</g>
<defs>
<clipPath>
<rect width="32" height="22" fill="white"/>
</clipPath>
</defs>
</symbol>






<symbol id="icon-logo6" width="100%" height="60" viewBox="0 0 168 88" fill="none">

<path d="M85.5293 43.4433C85.0853 42.8524 84.8729 42.1542 84.9233 41.4513V38.5632C84.9233 37.6779 85.1242 37.0051 85.5259 36.5448C85.9277 36.0845 86.6177 35.8554 87.596 35.8573C88.5153 35.8573 89.1679 36.0532 89.5537 36.4449C89.9746 36.9447 90.1794 37.556 90.1325 38.1725V38.8512H88.488V38.1637C88.4939 37.9386 88.4779 37.7136 88.4404 37.4909C88.4167 37.3386 88.3339 37.1977 88.2055 37.0913C88.0366 36.9766 87.8239 36.921 87.6096 36.9356C87.3843 36.9211 87.1609 36.9797 86.9832 37.1001C86.8399 37.218 86.7444 37.3725 86.7108 37.5408C86.6636 37.7765 86.642 38.0155 86.6461 38.2547V41.7598C86.6202 42.0979 86.6927 42.4363 86.8572 42.744C86.939 42.8482 87.0526 42.9307 87.1854 42.9826C87.3182 43.0344 87.465 43.0536 87.6096 43.0378C87.8203 43.0528 88.0293 42.9958 88.1918 42.8792C88.3258 42.7644 88.412 42.6147 88.437 42.4532C88.4754 42.2206 88.4925 41.9858 88.488 41.751V41.04H90.1325V41.6893C90.1787 42.3319 89.9789 42.9699 89.5639 43.505C89.186 43.9339 88.5425 44.1484 87.596 44.1484C86.6495 44.1484 85.9345 43.9193 85.5293 43.4433Z" fill="#8E8F99"/>
<path d="M92.3763 43.4727C91.961 43.0232 91.7533 42.368 91.7533 41.5013V38.4633C91.7533 37.6054 91.961 36.9561 92.3763 36.5154C92.7917 36.0747 93.4863 35.8554 94.46 35.8573C95.4269 35.8573 96.1181 36.0767 96.5334 36.5154C96.9488 36.9561 97.1599 37.6054 97.1599 38.4633V41.5013C97.1599 42.3592 96.9488 43.0173 96.5266 43.4697C96.1044 43.9222 95.4167 44.1484 94.46 44.1484C93.5033 44.1484 92.7951 43.9193 92.3763 43.4727ZM95.226 42.744C95.3748 42.4625 95.4425 42.154 95.4235 41.845V38.1255C95.4426 37.8224 95.376 37.5199 95.2294 37.2441C95.146 37.1377 95.0296 37.0538 94.8936 37.0019C94.7575 36.9499 94.6073 36.932 94.46 36.9503C94.3123 36.9325 94.1617 36.9506 94.0252 37.0025C93.8887 37.0544 93.7717 37.138 93.6871 37.2441C93.5374 37.5191 93.4695 37.8221 93.4897 38.1255V41.8626C93.469 42.1718 93.5368 42.4805 93.6871 42.7617C93.783 42.8564 93.9013 42.9324 94.034 42.9845C94.1667 43.0365 94.3108 43.0634 94.4566 43.0634C94.6024 43.0634 94.7465 43.0365 94.8792 42.9845C95.0119 42.9324 95.1302 42.8564 95.226 42.7617V42.744Z" fill="#8E8F99"/>
<path d="M99.1378 35.946H100.908L102.239 41.5512L103.601 35.946H105.324L105.498 44.0365H104.224L104.088 38.4137L102.774 44.0365H101.753L100.391 38.3931L100.265 44.0365H98.9778L99.1378 35.946Z" fill="#8E8F99"/>
<path d="M107.483 35.946H110.241C111.829 35.946 112.624 36.7118 112.624 38.2433C112.624 39.7102 111.787 40.4427 110.115 40.4407H109.175V44.0365H107.473L107.483 35.946ZM109.839 39.4037C110.007 39.4221 110.178 39.4088 110.34 39.3647C110.501 39.3206 110.65 39.2467 110.775 39.1481C110.97 38.8749 111.056 38.554 111.02 38.2345C111.029 37.9877 111.002 37.7409 110.939 37.5001C110.914 37.4196 110.872 37.3442 110.813 37.2781C110.755 37.212 110.682 37.1567 110.598 37.1152C110.362 37.0174 110.101 36.973 109.839 36.986H109.178V39.4037H109.839Z" fill="#8E8F99"/>
<path d="M115.079 35.946H116.907L118.783 44.0365H117.196L116.825 42.171H115.194L114.813 44.0365H113.203L115.079 35.946ZM116.641 41.2339L116.005 37.8379L115.368 41.2339H116.641Z" fill="#8E8F99"/>
<path d="M120.298 35.946H121.49L123.771 40.5612V35.946H125.184V44.0365H124.05L121.755 39.2186V44.0365H120.295L120.298 35.946Z" fill="#8E8F99"/>
<path d="M128.493 40.9516L126.597 35.9573H128.194L129.351 39.1654L130.437 35.9573H132L130.127 40.9516V44.0363H128.493V40.9516Z" fill="#8E8F99"/>
<path d="M88.1579 47.5736V47.9967H86.7688V51.2842H86.1866V47.9967H84.7906V47.5736H88.1579Z" fill="#8E8F99"/>
<path d="M92.5123 51.2844H92.0629C92.0173 51.2869 91.9722 51.2743 91.9369 51.2492C91.9029 51.2277 91.8769 51.1981 91.862 51.164L91.4603 50.2827H89.5332L89.1314 51.164C89.12 51.2009 89.0991 51.235 89.0702 51.2639C89.0345 51.2885 88.9897 51.301 88.9442 51.2991H88.4948L90.1971 47.5887H90.7895L92.5123 51.2844ZM89.6932 49.9066H91.3003L90.6193 48.3966C90.5691 48.2824 90.527 48.1657 90.4933 48.047C90.4695 48.1175 90.4491 48.1851 90.4286 48.2439L90.3674 48.3996L89.6932 49.9066Z" fill="#8E8F99"/>
<path d="M95.4472 50.9202C95.5538 50.925 95.6606 50.925 95.7672 50.9202C95.8593 50.912 95.9504 50.8972 96.0396 50.8761C96.123 50.8584 96.2049 50.8359 96.2848 50.8085C96.3597 50.7821 96.4346 50.7498 96.5129 50.7174V49.883H95.8319C95.8151 49.8838 95.7982 49.8816 95.7824 49.8766C95.7666 49.8715 95.7522 49.8637 95.74 49.8536C95.7288 49.8453 95.72 49.8349 95.7141 49.8232C95.7082 49.8115 95.7054 49.7988 95.706 49.786V49.501H97.027V50.9231C96.9192 50.9897 96.8053 51.0486 96.6865 51.0994C96.5651 51.1511 96.4386 51.1934 96.3086 51.2257C96.1694 51.2611 96.027 51.2866 95.883 51.3021C95.7179 51.3179 95.552 51.3258 95.3859 51.3256C95.0923 51.3278 94.8009 51.2809 94.5279 51.1875C94.273 51.0991 94.0414 50.9672 93.847 50.7997C93.6574 50.6305 93.5082 50.4309 93.4078 50.2121C93.3005 49.9661 93.2474 49.705 93.2512 49.4423C93.2476 49.1778 93.2995 48.9151 93.4044 48.6666C93.5023 48.4467 93.6518 48.2466 93.8436 48.079C94.0379 47.912 94.2696 47.7811 94.5245 47.6941C94.8161 47.5994 95.1255 47.5526 95.437 47.556C95.5955 47.5558 95.7537 47.5666 95.9102 47.5883C96.0486 47.6077 96.1844 47.6392 96.3154 47.6823C96.4345 47.7209 96.5486 47.7701 96.6559 47.8292C96.7602 47.8872 96.8593 47.952 96.9521 48.0231L96.7887 48.2523C96.7759 48.2732 96.7568 48.2908 96.7334 48.3032C96.7101 48.3156 96.6833 48.3224 96.6559 48.3228C96.6182 48.3218 96.5816 48.3116 96.5503 48.2934C96.4993 48.2699 96.4448 48.2406 96.3835 48.2053C96.3111 48.1661 96.2348 48.1327 96.1554 48.1054C96.0539 48.0703 95.9491 48.0427 95.8421 48.0231C95.6995 48.0005 95.5547 47.9896 95.4097 47.9908C95.1851 47.9887 94.9621 48.0236 94.7526 48.0936C94.5632 48.1592 94.3924 48.2595 94.2522 48.3875C94.1111 48.5209 94.0033 48.6779 93.9355 48.8488C93.7834 49.2506 93.7834 49.6838 93.9355 50.0857C94.01 50.2602 94.126 50.4194 94.276 50.5529C94.4156 50.6802 94.5851 50.7804 94.7731 50.8467C94.9896 50.9108 95.219 50.9359 95.4472 50.9202Z" fill="#8E8F99"/>
<path d="M100.874 50.8611H102.733V51.2842H100.306V47.5736H100.888L100.874 50.8611Z" fill="#8E8F99"/>
<path d="M104.667 51.2842H104.085V47.5736H104.667V51.2842Z" fill="#8E8F99"/>
<path d="M106.833 47.5913C106.867 47.6083 106.897 47.6313 106.921 47.6589L109.41 50.4559C109.406 50.4119 109.406 50.3677 109.41 50.3237C109.41 50.2826 109.41 50.2414 109.41 50.2032V47.559H109.917V51.2845H109.624C109.581 51.2875 109.537 51.2804 109.498 51.2639C109.463 51.2454 109.432 51.2215 109.406 51.1934L106.921 48.3993C106.921 48.4433 106.921 48.4845 106.921 48.5256C106.921 48.5667 106.921 48.6049 106.921 48.6402V51.2845H106.434V47.5737H106.737C106.77 47.5737 106.803 47.5797 106.833 47.5913Z" fill="#8E8F99"/>
<path d="M114.204 47.5736V47.982H112.14V49.2071H113.812V49.6008H112.14V50.8671H114.204V51.2754H111.541V47.5736H114.204Z" fill="#8E8F99"/>
<path d="M53.1952 24.6587L79.047 30.9927V53.1883L53.1952 46.8572V24.6587ZM51.5371 22.7667V47.9354L80.7017 55.0832V29.9175L51.5371 22.7667Z" fill="#8E8F99"/>
<path d="M67.168 66.7667L38 59.6129V34.4469L67.168 41.5977V66.7667Z" fill="#8E8F99"/>
<path d="M52.0205 24.3737L77.5352 30.6283L66.6845 39.9941L41.1664 33.7365L52.0205 24.3737ZM51.537 22.7667L38 34.4475L67.168 41.5981L80.7016 29.9174L51.537 22.7667Z" fill="#8E8F99"/>
<path d="M68.8091 65.3509L80.7016 55.0863L68.8091 52.1691V65.3509Z" fill="#8E8F99"/>
</symbol>

<symbol id="icon-twitter-sect" width="24" height="20" viewBox="0 0 24 20" fill="none">
<path d="M24 2.55856C23.1075 2.95006 22.1565 3.20956 21.165 3.33556C22.185 2.72656 22.9635 1.76956 23.3295 0.616061C22.3785 1.18306 21.3285 1.58356 20.2095 1.80706C19.3065 0.845561 18.0195 0.250061 16.6155 0.250061C13.8915 0.250061 11.6985 2.46106 11.6985 5.17156C11.6985 5.56156 11.7315 5.93656 11.8125 6.29356C7.722 6.09406 4.1025 4.13356 1.671 1.14706C1.2465 1.88356 0.9975 2.72656 0.9975 3.63406C0.9975 5.33806 1.875 6.84856 3.183 7.72306C2.3925 7.70806 1.617 7.47856 0.96 7.11706C0.96 7.13206 0.96 7.15156 0.96 7.17106C0.96 9.56206 2.6655 11.5481 4.902 12.0056C4.5015 12.1151 4.065 12.1676 3.612 12.1676C3.297 12.1676 2.979 12.1496 2.6805 12.0836C3.318 14.0321 5.127 15.4646 7.278 15.5111C5.604 16.8206 3.4785 17.6096 1.1775 17.6096C0.774 17.6096 0.387 17.5916 0 17.5421C2.1795 18.9476 4.7625 19.7501 7.548 19.7501C16.602 19.7501 21.552 12.2501 21.552 5.74906C21.552 5.53156 21.5445 5.32156 21.534 5.11306C22.5105 4.42006 23.331 3.55456 24 2.55856Z" fill="#F4F4FD"/>
</symbol>

</svg>












